<?xml version="1.0" encoding="UTF-8"?>
<!-- Created with Inkscape (http://www.inkscape.org/) -->
<svg width="200" height="200" version="1.1" viewBox="0 0 200 200" xmlns="http://www.w3.org/2000/svg">
 <g fill-rule="evenodd">
  <rect width="200" height="200" fill="#0083c4"/>
  <g class="fil1 fnt0" transform="matrix(1.47 0 0 1.47 -.84825 .086155)" clip-rule="evenodd" fill="#fff" image-rendering="optimizeQuality" shape-rendering="geometricPrecision" aria-label="PV">
   <path d="m7.8336 101.53 10.612-67.12h26.757q4.9887 0 8.8889 1.6327 3.9909 1.542 6.3492 5.4422 2.3583 3.9002 2.3583 10.884 0 1.3605-0.27211 3.4467-0.27211 1.9955-0.54422 3.6281-0.90703 6.0771-3.0839 10.159-2.0862 4.0816-5.0794 6.5306-2.9025 2.3583-6.3492 3.4467-3.356 0.99773-6.712 0.99773-4.3537 0-8.7982-0.45352-4.3537-0.54422-7.0748-1.0884l-3.6281 22.494zm18.685-33.016h12.426q2.5397 0 4.5352-1.1791t3.2653-3.5374q1.3605-2.3583 1.9048-5.805 0.18141-1.2698 0.27211-2.449 0.18141-1.2698 0.18141-1.8141 0-3.9909-1.7234-5.6236-1.6327-1.6327-4.7166-1.6327h-12.698z"/>
   <path d="m80.577 101.53-10.34-67.12h13.878l7.2562 52.517 24.127-52.517h13.878l-31.927 67.12z"/>
  </g>
 </g>
</svg>
